STARTFONT 2.1
FONT -FontForge-Permanent Marker-Book-R-Normal--8-80-72-72-P-47-ISO10646-1
SIZE 8 72 72
FONTBOUNDINGBOX 12 12 -2 -3
COMMENT "Generated by fontforge, http://fontforge.sourceforge.net"
COMMENT "Copyright (c) 2010 by Font Diner, Inc. All rights reserved."
STARTPROPERTIES 39
FOUNDRY "FontForge"
FAMILY_NAME "Permanent Marker"
WEIGHT_NAME "Book"
SLANT "R"
SETWIDTH_NAME "Normal"
ADD_STYLE_NAME ""
PIXEL_SIZE 8
POINT_SIZE 80
RESOLUTION_X 72
RESOLUTION_Y 72
SPACING "P"
AVERAGE_WIDTH 47
CHARSET_REGISTRY "ISO10646"
CHARSET_ENCODING "1"
FONTNAME_REGISTRY ""
CHARSET_COLLECTIONS "ISO10646-1"
FONT_NAME "PermanentMarker-Regular"
FACE_NAME "Permanent Marker Regular"
COPYRIGHT "Copyright (c) 2010 by Font Diner, Inc. All rights reserved."
FONT_VERSION "1.001"
FONT_ASCENT 6
FONT_DESCENT 2
UNDERLINE_POSITION -1
UNDERLINE_THICKNESS 1
X_HEIGHT 4
CAP_HEIGHT 5
RAW_ASCENT 799
RAW_DESCENT 200
NORM_SPACE 3
RELATIVE_WEIGHT 40
RELATIVE_SETWIDTH 50
SUPERSCRIPT_X 0
SUPERSCRIPT_Y 3
SUPERSCRIPT_SIZE 5
SUBSCRIPT_X 0
SUBSCRIPT_Y 1
SUBSCRIPT_SIZE 5
AVG_LOWERCASE_WIDTH 46
AVG_UPPERCASE_WIDTH 55
ENDPROPERTIES
CHARS 230
STARTCHAR space
ENCODING 32
SWIDTH 370 0
DWIDTH 3 0
BBX 1 1 0 0
BITMAP
00
ENDCHAR
STARTCHAR exclam
ENCODING 33
SWIDTH 260 0
DWIDTH 2 0
BBX 2 6 0 0
BITMAP
40
40
40
40
00
80
ENDCHAR
STARTCHAR quotedbl
ENCODING 34
SWIDTH 492 0
DWIDTH 4 0
BBX 3 4 1 2
BITMAP
A0
A0
E0
C0
ENDCHAR
STARTCHAR numbersign
ENCODING 35
SWIDTH 703 0
DWIDTH 6 0
BBX 6 6 0 0
BITMAP
28
28
7C
78
D0
70
ENDCHAR
STARTCHAR dollar
ENCODING 36
SWIDTH 493 0
DWIDTH 4 0
BBX 4 6 0 0
BITMAP
20
30
C0
20
60
40
ENDCHAR
STARTCHAR percent
ENCODING 37
SWIDTH 643 0
DWIDTH 5 0
BBX 5 6 0 0
BITMAP
48
68
D0
30
58
B0
ENDCHAR
STARTCHAR ampersand
ENCODING 38
SWIDTH 599 0
DWIDTH 5 0
BBX 5 4 0 0
BITMAP
60
F8
20
20
ENDCHAR
STARTCHAR quotesingle
ENCODING 39
SWIDTH 265 0
DWIDTH 2 0
BBX 1 4 1 2
BITMAP
80
80
80
80
ENDCHAR
STARTCHAR parenleft
ENCODING 40
SWIDTH 361 0
DWIDTH 3 0
BBX 4 8 0 -1
BITMAP
10
30
60
40
C0
80
C0
40
ENDCHAR
STARTCHAR parenright
ENCODING 41
SWIDTH 361 0
DWIDTH 3 0
BBX 4 8 -1 -1
BITMAP
20
20
30
30
20
20
40
C0
ENDCHAR
STARTCHAR asterisk
ENCODING 42
SWIDTH 673 0
DWIDTH 5 0
BBX 5 4 1 2
BITMAP
50
60
F8
E0
ENDCHAR
STARTCHAR plus
ENCODING 43
SWIDTH 579 0
DWIDTH 5 0
BBX 4 4 0 0
BITMAP
20
F0
E0
40
ENDCHAR
STARTCHAR comma
ENCODING 44
SWIDTH 204 0
DWIDTH 2 0
BBX 2 2 -1 -1
BITMAP
40
C0
ENDCHAR
STARTCHAR hyphen
ENCODING 45
SWIDTH 609 0
DWIDTH 5 0
BBX 4 2 0 1
BITMAP
F0
80
ENDCHAR
STARTCHAR period
ENCODING 46
SWIDTH 228 0
DWIDTH 2 0
BBX 1 1 0 0
BITMAP
80
ENDCHAR
STARTCHAR slash
ENCODING 47
SWIDTH 401 0
DWIDTH 3 0
BBX 4 6 0 0
BITMAP
10
30
20
40
80
80
ENDCHAR
STARTCHAR zero
ENCODING 48
SWIDTH 686 0
DWIDTH 6 0
BBX 5 6 0 0
BITMAP
10
30
78
C8
98
F0
ENDCHAR
STARTCHAR one
ENCODING 49
SWIDTH 322 0
DWIDTH 3 0
BBX 2 6 0 0
BITMAP
40
40
40
40
C0
80
ENDCHAR
STARTCHAR two
ENCODING 50
SWIDTH 650 0
DWIDTH 5 0
BBX 6 6 0 0
BITMAP
70
78
30
60
DC
78
ENDCHAR
STARTCHAR three
ENCODING 51
SWIDTH 561 0
DWIDTH 5 0
BBX 4 6 0 0
BITMAP
70
F0
60
70
B0
E0
ENDCHAR
STARTCHAR four
ENCODING 52
SWIDTH 582 0
DWIDTH 5 0
BBX 5 6 0 0
BITMAP
10
90
78
70
20
20
ENDCHAR
STARTCHAR five
ENCODING 53
SWIDTH 580 0
DWIDTH 5 0
BBX 5 6 0 0
BITMAP
20
78
C0
60
B0
60
ENDCHAR
STARTCHAR six
ENCODING 54
SWIDTH 500 0
DWIDTH 4 0
BBX 4 6 0 0
BITMAP
20
60
40
A0
F0
E0
ENDCHAR
STARTCHAR seven
ENCODING 55
SWIDTH 576 0
DWIDTH 5 0
BBX 5 6 0 0
BITMAP
E0
F0
10
F8
20
40
ENDCHAR
STARTCHAR eight
ENCODING 56
SWIDTH 537 0
DWIDTH 4 0
BBX 5 6 0 0
BITMAP
70
E8
70
60
60
60
ENDCHAR
STARTCHAR nine
ENCODING 57
SWIDTH 529 0
DWIDTH 4 0
BBX 4 6 0 0
BITMAP
20
70
F0
10
20
20
ENDCHAR
STARTCHAR colon
ENCODING 58
SWIDTH 241 0
DWIDTH 2 0
BBX 2 3 0 0
BITMAP
C0
00
80
ENDCHAR
STARTCHAR semicolon
ENCODING 59
SWIDTH 245 0
DWIDTH 2 0
BBX 3 4 -1 -1
BITMAP
60
00
40
C0
ENDCHAR
STARTCHAR less
ENCODING 60
SWIDTH 625 0
DWIDTH 5 0
BBX 5 4 0 0
BITMAP
18
F0
E0
10
ENDCHAR
STARTCHAR equal
ENCODING 61
SWIDTH 586 0
DWIDTH 5 0
BBX 4 3 0 1
BITMAP
30
C0
F0
ENDCHAR
STARTCHAR greater
ENCODING 62
SWIDTH 634 0
DWIDTH 5 0
BBX 5 4 0 0
BITMAP
C0
30
78
80
ENDCHAR
STARTCHAR question
ENCODING 63
SWIDTH 556 0
DWIDTH 4 0
BBX 5 6 0 0
BITMAP
70
78
30
60
00
C0
ENDCHAR
STARTCHAR at
ENCODING 64
SWIDTH 732 0
DWIDTH 6 0
BBX 6 6 0 0
BITMAP
10
28
54
B4
B8
78
ENDCHAR
STARTCHAR A
ENCODING 65
SWIDTH 702 0
DWIDTH 6 0
BBX 6 6 0 0
BITMAP
10
30
70
5C
F8
98
ENDCHAR
STARTCHAR B
ENCODING 66
SWIDTH 686 0
DWIDTH 6 0
BBX 5 6 0 0
BITMAP
70
D8
70
78
58
F0
ENDCHAR
STARTCHAR C
ENCODING 67
SWIDTH 611 0
DWIDTH 5 0
BBX 5 6 0 0
BITMAP
10
78
E0
80
C0
78
ENDCHAR
STARTCHAR D
ENCODING 68
SWIDTH 588 0
DWIDTH 5 0
BBX 5 6 0 0
BITMAP
40
E0
50
D8
F0
C0
ENDCHAR
STARTCHAR E
ENCODING 69
SWIDTH 626 0
DWIDTH 5 0
BBX 5 6 0 0
BITMAP
18
78
70
F0
90
F8
ENDCHAR
STARTCHAR F
ENCODING 70
SWIDTH 575 0
DWIDTH 5 0
BBX 6 6 0 0
BITMAP
1C
E0
40
F0
C0
80
ENDCHAR
STARTCHAR G
ENCODING 71
SWIDTH 789 0
DWIDTH 6 0
BBX 7 6 0 0
BITMAP
08
38
68
CC
BE
F0
ENDCHAR
STARTCHAR H
ENCODING 72
SWIDTH 695 0
DWIDTH 6 0
BBX 5 6 0 0
BITMAP
48
48
48
F8
F8
D8
ENDCHAR
STARTCHAR I
ENCODING 73
SWIDTH 515 0
DWIDTH 4 0
BBX 5 6 0 0
BITMAP
78
60
20
20
60
F0
ENDCHAR
STARTCHAR J
ENCODING 74
SWIDTH 668 0
DWIDTH 5 0
BBX 6 6 0 0
BITMAP
3C
7C
10
10
B0
E0
ENDCHAR
STARTCHAR K
ENCODING 75
SWIDTH 776 0
DWIDTH 6 0
BBX 6 6 0 0
BITMAP
20
6C
78
F0
DC
CC
ENDCHAR
STARTCHAR L
ENCODING 76
SWIDTH 632 0
DWIDTH 5 0
BBX 5 6 0 0
BITMAP
60
60
40
C0
F0
F8
ENDCHAR
STARTCHAR M
ENCODING 77
SWIDTH 973 0
DWIDTH 8 0
BBX 8 6 0 0
BITMAP
22
77
7F
FA
C2
82
ENDCHAR
STARTCHAR N
ENCODING 78
SWIDTH 684 0
DWIDTH 5 0
BBX 6 6 0 0
BITMAP
28
6C
68
E8
F8
90
ENDCHAR
STARTCHAR O
ENCODING 79
SWIDTH 744 0
DWIDTH 6 0
BBX 6 6 0 0
BITMAP
10
38
68
CC
9C
F8
ENDCHAR
STARTCHAR P
ENCODING 80
SWIDTH 639 0
DWIDTH 5 0
BBX 5 6 0 0
BITMAP
38
78
58
F0
40
C0
ENDCHAR
STARTCHAR Q
ENCODING 81
SWIDTH 744 0
DWIDTH 6 0
BBX 6 7 0 -1
BITMAP
10
38
6C
DC
98
F8
08
ENDCHAR
STARTCHAR R
ENCODING 82
SWIDTH 646 0
DWIDTH 5 0
BBX 5 6 0 0
BITMAP
30
30
58
F0
E0
B8
ENDCHAR
STARTCHAR S
ENCODING 83
SWIDTH 576 0
DWIDTH 5 0
BBX 5 6 0 0
BITMAP
38
F8
E0
10
30
E0
ENDCHAR
STARTCHAR T
ENCODING 84
SWIDTH 607 0
DWIDTH 5 0
BBX 6 6 0 0
BITMAP
3C
F8
20
60
40
60
ENDCHAR
STARTCHAR U
ENCODING 85
SWIDTH 695 0
DWIDTH 6 0
BBX 6 6 0 0
BITMAP
04
4C
CC
D8
F0
60
ENDCHAR
STARTCHAR V
ENCODING 86
SWIDTH 583 0
DWIDTH 5 0
BBX 4 6 1 0
BITMAP
90
B0
A0
E0
C0
80
ENDCHAR
STARTCHAR W
ENCODING 87
SWIDTH 994 0
DWIDTH 8 0
BBX 8 6 0 0
BITMAP
41
69
5B
DA
FE
64
ENDCHAR
STARTCHAR X
ENCODING 88
SWIDTH 623 0
DWIDTH 5 0
BBX 6 6 0 0
BITMAP
48
7C
70
70
D0
90
ENDCHAR
STARTCHAR Y
ENCODING 89
SWIDTH 493 0
DWIDTH 4 0
BBX 5 6 0 0
BITMAP
98
50
70
60
40
C0
ENDCHAR
STARTCHAR Z
ENCODING 90
SWIDTH 664 0
DWIDTH 5 0
BBX 6 6 0 0
BITMAP
78
7C
30
60
D8
F0
ENDCHAR
STARTCHAR bracketleft
ENCODING 91
SWIDTH 387 0
DWIDTH 3 0
BBX 6 8 0 -1
BITMAP
3C
60
40
40
40
C0
80
E0
ENDCHAR
STARTCHAR backslash
ENCODING 92
SWIDTH 352 0
DWIDTH 3 0
BBX 2 6 0 0
BITMAP
80
40
40
40
40
40
ENDCHAR
STARTCHAR bracketright
ENCODING 93
SWIDTH 403 0
DWIDTH 3 0
BBX 5 8 -2 -1
BITMAP
38
08
08
18
10
10
10
E0
ENDCHAR
STARTCHAR asciicircum
ENCODING 94
SWIDTH 518 0
DWIDTH 4 0
BBX 4 5 0 1
BITMAP
20
20
50
D0
90
ENDCHAR
STARTCHAR underscore
ENCODING 95
SWIDTH 708 0
DWIDTH 6 0
BBX 7 1 -1 0
BITMAP
FE
ENDCHAR
STARTCHAR grave
ENCODING 96
SWIDTH 754 0
DWIDTH 6 0
BBX 3 2 2 4
BITMAP
C0
60
ENDCHAR
STARTCHAR a
ENCODING 97
SWIDTH 581 0
DWIDTH 5 0
BBX 5 5 0 0
BITMAP
20
70
50
F8
90
ENDCHAR
STARTCHAR b
ENCODING 98
SWIDTH 573 0
DWIDTH 5 0
BBX 4 5 0 0
BITMAP
70
D0
60
50
F0
ENDCHAR
STARTCHAR c
ENCODING 99
SWIDTH 513 0
DWIDTH 4 0
BBX 4 5 0 0
BITMAP
10
70
C0
80
70
ENDCHAR
STARTCHAR d
ENCODING 100
SWIDTH 497 0
DWIDTH 4 0
BBX 4 5 0 0
BITMAP
80
E0
90
B0
C0
ENDCHAR
STARTCHAR e
ENCODING 101
SWIDTH 521 0
DWIDTH 4 0
BBX 4 5 0 0
BITMAP
30
E0
70
80
F0
ENDCHAR
STARTCHAR f
ENCODING 102
SWIDTH 455 0
DWIDTH 4 0
BBX 5 5 0 0
BITMAP
38
C0
D0
E0
80
ENDCHAR
STARTCHAR g
ENCODING 103
SWIDTH 652 0
DWIDTH 5 0
BBX 6 5 0 0
BITMAP
10
70
D0
9C
F0
ENDCHAR
STARTCHAR h
ENCODING 104
SWIDTH 582 0
DWIDTH 5 0
BBX 5 5 0 0
BITMAP
50
50
D8
F0
90
ENDCHAR
STARTCHAR i
ENCODING 105
SWIDTH 320 0
DWIDTH 3 0
BBX 2 5 0 0
BITMAP
40
40
40
C0
40
ENDCHAR
STARTCHAR j
ENCODING 106
SWIDTH 534 0
DWIDTH 4 0
BBX 5 5 0 0
BITMAP
78
D0
30
20
E0
ENDCHAR
STARTCHAR k
ENCODING 107
SWIDTH 645 0
DWIDTH 5 0
BBX 5 5 0 0
BITMAP
48
58
60
F0
98
ENDCHAR
STARTCHAR l
ENCODING 108
SWIDTH 533 0
DWIDTH 4 0
BBX 4 5 0 0
BITMAP
40
40
C0
80
F0
ENDCHAR
STARTCHAR m
ENCODING 109
SWIDTH 814 0
DWIDTH 7 0
BBX 6 5 0 0
BITMAP
24
6C
7C
E4
84
ENDCHAR
STARTCHAR n
ENCODING 110
SWIDTH 564 0
DWIDTH 5 0
BBX 5 5 0 0
BITMAP
50
78
D0
F0
B0
ENDCHAR
STARTCHAR o
ENCODING 111
SWIDTH 628 0
DWIDTH 5 0
BBX 5 5 0 0
BITMAP
30
70
D0
98
F0
ENDCHAR
STARTCHAR p
ENCODING 112
SWIDTH 524 0
DWIDTH 4 0
BBX 4 5 0 0
BITMAP
30
50
F0
C0
80
ENDCHAR
STARTCHAR q
ENCODING 113
SWIDTH 625 0
DWIDTH 5 0
BBX 5 5 0 0
BITMAP
30
30
E8
98
F0
ENDCHAR
STARTCHAR r
ENCODING 114
SWIDTH 541 0
DWIDTH 4 0
BBX 4 5 0 0
BITMAP
20
70
F0
C0
B0
ENDCHAR
STARTCHAR s
ENCODING 115
SWIDTH 463 0
DWIDTH 4 0
BBX 5 5 0 0
BITMAP
30
C8
60
20
E0
ENDCHAR
STARTCHAR t
ENCODING 116
SWIDTH 479 0
DWIDTH 4 0
BBX 5 5 0 0
BITMAP
78
E0
60
40
40
ENDCHAR
STARTCHAR u
ENCODING 117
SWIDTH 584 0
DWIDTH 5 0
BBX 5 5 0 0
BITMAP
08
48
D8
F0
60
ENDCHAR
STARTCHAR v
ENCODING 118
SWIDTH 485 0
DWIDTH 4 0
BBX 3 5 1 0
BITMAP
A0
A0
C0
C0
80
ENDCHAR
STARTCHAR w
ENCODING 119
SWIDTH 825 0
DWIDTH 7 0
BBX 7 5 0 0
BITMAP
42
5A
D4
BC
C8
ENDCHAR
STARTCHAR x
ENCODING 120
SWIDTH 506 0
DWIDTH 4 0
BBX 5 5 0 0
BITMAP
90
78
60
E0
90
ENDCHAR
STARTCHAR y
ENCODING 121
SWIDTH 400 0
DWIDTH 3 0
BBX 4 5 0 0
BITMAP
90
70
60
40
C0
ENDCHAR
STARTCHAR z
ENCODING 122
SWIDTH 547 0
DWIDTH 4 0
BBX 5 5 0 0
BITMAP
70
18
60
C0
F0
ENDCHAR
STARTCHAR braceleft
ENCODING 123
SWIDTH 448 0
DWIDTH 4 0
BBX 6 8 0 -1
BITMAP
3C
20
20
C0
60
40
40
F0
ENDCHAR
STARTCHAR bar
ENCODING 124
SWIDTH 332 0
DWIDTH 3 0
BBX 3 6 0 0
BITMAP
20
60
40
40
C0
80
ENDCHAR
STARTCHAR braceright
ENCODING 125
SWIDTH 481 0
DWIDTH 4 0
BBX 6 8 -2 -1
BITMAP
38
08
08
18
0C
10
30
E0
ENDCHAR
STARTCHAR asciitilde
ENCODING 126
SWIDTH 581 0
DWIDTH 5 0
BBX 4 1 0 2
BITMAP
F0
ENDCHAR
STARTCHAR uni00A0
ENCODING 160
SWIDTH 370 0
DWIDTH 3 0
BBX 1 1 0 0
BITMAP
00
ENDCHAR
STARTCHAR exclamdown
ENCODING 161
SWIDTH 260 0
DWIDTH 2 0
BBX 2 6 0 0
BITMAP
40
40
C0
80
80
80
ENDCHAR
STARTCHAR cent
ENCODING 162
SWIDTH 488 0
DWIDTH 4 0
BBX 4 6 0 0
BITMAP
20
30
40
80
F0
40
ENDCHAR
STARTCHAR sterling
ENCODING 163
SWIDTH 586 0
DWIDTH 5 0
BBX 5 4 0 1
BITMAP
38
60
F0
F0
ENDCHAR
STARTCHAR currency
ENCODING 164
SWIDTH 509 0
DWIDTH 4 0
BBX 4 4 0 0
BITMAP
70
E0
E0
A0
ENDCHAR
STARTCHAR yen
ENCODING 165
SWIDTH 563 0
DWIDTH 5 0
BBX 5 5 0 0
BITMAP
58
70
F0
60
40
ENDCHAR
STARTCHAR brokenbar
ENCODING 166
SWIDTH 301 0
DWIDTH 2 0
BBX 3 6 0 0
BITMAP
20
40
40
00
C0
80
ENDCHAR
STARTCHAR section
ENCODING 167
SWIDTH 630 0
DWIDTH 5 0
BBX 5 7 0 -1
BITMAP
78
60
70
D8
70
B0
E0
ENDCHAR
STARTCHAR dieresis
ENCODING 168
SWIDTH 754 0
DWIDTH 6 0
BBX 3 1 2 5
BITMAP
A0
ENDCHAR
STARTCHAR copyright
ENCODING 169
SWIDTH 614 0
DWIDTH 5 0
BBX 5 5 0 1
BITMAP
30
58
E8
E8
70
ENDCHAR
STARTCHAR ordfeminine
ENCODING 170
SWIDTH 454 0
DWIDTH 4 0
BBX 4 3 0 2
BITMAP
60
70
E0
ENDCHAR
STARTCHAR guillemotleft
ENCODING 171
SWIDTH 566 0
DWIDTH 5 0
BBX 4 3 0 0
BITMAP
50
A0
50
ENDCHAR
STARTCHAR logicalnot
ENCODING 172
SWIDTH 698 0
DWIDTH 6 0
BBX 5 3 0 0
BITMAP
F8
88
10
ENDCHAR
STARTCHAR sfthyphen
ENCODING 173
SWIDTH 608 0
DWIDTH 5 0
BBX 4 2 0 1
BITMAP
F0
80
ENDCHAR
STARTCHAR registered
ENCODING 174
SWIDTH 624 0
DWIDTH 5 0
BBX 5 5 0 1
BITMAP
30
58
B8
E8
70
ENDCHAR
STARTCHAR macron
ENCODING 175
SWIDTH 754 0
DWIDTH 6 0
BBX 3 1 2 5
BITMAP
E0
ENDCHAR
STARTCHAR degree
ENCODING 176
SWIDTH 284 0
DWIDTH 2 0
BBX 2 3 1 4
BITMAP
40
C0
C0
ENDCHAR
STARTCHAR plusminus
ENCODING 177
SWIDTH 559 0
DWIDTH 4 0
BBX 4 6 0 0
BITMAP
20
20
F0
20
60
F0
ENDCHAR
STARTCHAR twosuperior
ENCODING 178
SWIDTH 386 0
DWIDTH 3 0
BBX 2 3 1 3
BITMAP
C0
C0
C0
ENDCHAR
STARTCHAR threesuperior
ENCODING 179
SWIDTH 366 0
DWIDTH 3 0
BBX 2 3 1 3
BITMAP
C0
C0
C0
ENDCHAR
STARTCHAR acute
ENCODING 180
SWIDTH 754 0
DWIDTH 6 0
BBX 3 2 2 4
BITMAP
60
C0
ENDCHAR
STARTCHAR mu
ENCODING 181
SWIDTH 569 0
DWIDTH 5 0
BBX 4 5 0 -1
BITMAP
90
D0
F0
E0
80
ENDCHAR
STARTCHAR paragraph
ENCODING 182
SWIDTH 729 0
DWIDTH 6 0
BBX 6 6 0 0
BITMAP
3C
FC
58
38
28
28
ENDCHAR
STARTCHAR periodcentered
ENCODING 183
SWIDTH 226 0
DWIDTH 2 0
BBX 2 2 0 2
BITMAP
40
80
ENDCHAR
STARTCHAR cedilla
ENCODING 184
SWIDTH 754 0
DWIDTH 6 0
BBX 3 2 2 -2
BITMAP
40
E0
ENDCHAR
STARTCHAR onesuperior
ENCODING 185
SWIDTH 206 0
DWIDTH 2 0
BBX 1 3 1 3
BITMAP
80
80
80
ENDCHAR
STARTCHAR ordmasculine
ENCODING 186
SWIDTH 445 0
DWIDTH 4 0
BBX 3 3 0 2
BITMAP
60
E0
E0
ENDCHAR
STARTCHAR guillemotright
ENCODING 187
SWIDTH 595 0
DWIDTH 5 0
BBX 4 3 0 0
BITMAP
F0
50
A0
ENDCHAR
STARTCHAR onequarter
ENCODING 188
SWIDTH 705 0
DWIDTH 6 0
BBX 5 6 0 0
BITMAP
48
50
A0
78
D8
98
ENDCHAR
STARTCHAR onehalf
ENCODING 189
SWIDTH 750 0
DWIDTH 6 0
BBX 6 6 0 0
BITMAP
48
50
A0
78
D8
9C
ENDCHAR
STARTCHAR threequarters
ENCODING 190
SWIDTH 818 0
DWIDTH 7 0
BBX 5 6 1 0
BITMAP
C8
D0
E0
58
98
90
ENDCHAR
STARTCHAR questiondown
ENCODING 191
SWIDTH 556 0
DWIDTH 4 0
BBX 4 6 0 0
BITMAP
10
10
20
E0
80
F0
ENDCHAR
STARTCHAR Agrave
ENCODING 192
SWIDTH 702 0
DWIDTH 6 0
BBX 6 8 0 0
BITMAP
30
18
10
30
70
5C
F8
98
ENDCHAR
STARTCHAR Aacute
ENCODING 193
SWIDTH 702 0
DWIDTH 6 0
BBX 6 9 0 0
BITMAP
08
30
00
10
30
70
5C
F8
98
ENDCHAR
STARTCHAR Acircumflex
ENCODING 194
SWIDTH 702 0
DWIDTH 6 0
BBX 6 8 0 0
BITMAP
38
28
10
30
70
5C
F8
98
ENDCHAR
STARTCHAR Atilde
ENCODING 195
SWIDTH 702 0
DWIDTH 6 0
BBX 6 8 0 0
BITMAP
34
28
10
30
70
5C
F8
98
ENDCHAR
STARTCHAR Adieresis
ENCODING 196
SWIDTH 702 0
DWIDTH 6 0
BBX 6 8 0 0
BITMAP
28
00
10
30
70
5C
F8
98
ENDCHAR
STARTCHAR Aring
ENCODING 197
SWIDTH 702 0
DWIDTH 6 0
BBX 6 8 0 0
BITMAP
08
18
18
30
70
5C
F8
98
ENDCHAR
STARTCHAR AE
ENCODING 198
SWIDTH 1153 0
DWIDTH 9 0
BBX 10 6 -1 0
BITMAP
08C0
1BC0
3B80
6FC0
5E40
CFC0
ENDCHAR
STARTCHAR Ccedilla
ENCODING 199
SWIDTH 611 0
DWIDTH 5 0
BBX 5 9 0 -3
BITMAP
10
78
E0
80
C0
78
40
20
40
ENDCHAR
STARTCHAR Egrave
ENCODING 200
SWIDTH 626 0
DWIDTH 5 0
BBX 5 9 0 0
BITMAP
20
10
00
18
78
70
F0
90
F8
ENDCHAR
STARTCHAR Eacute
ENCODING 201
SWIDTH 626 0
DWIDTH 5 0
BBX 5 9 0 0
BITMAP
18
30
00
18
78
70
F0
90
F8
ENDCHAR
STARTCHAR Ecircumflex
ENCODING 202
SWIDTH 626 0
DWIDTH 5 0
BBX 5 8 0 0
BITMAP
30
28
18
78
70
F0
90
F8
ENDCHAR
STARTCHAR Edieresis
ENCODING 203
SWIDTH 626 0
DWIDTH 5 0
BBX 5 8 0 0
BITMAP
28
00
18
78
70
F0
90
F8
ENDCHAR
STARTCHAR Igrave
ENCODING 204
SWIDTH 515 0
DWIDTH 4 0
BBX 5 9 0 0
BITMAP
20
30
00
78
60
20
20
60
F0
ENDCHAR
STARTCHAR Iacute
ENCODING 205
SWIDTH 515 0
DWIDTH 4 0
BBX 5 9 0 0
BITMAP
08
10
00
78
60
20
20
60
F0
ENDCHAR
STARTCHAR Icircumflex
ENCODING 206
SWIDTH 515 0
DWIDTH 4 0
BBX 5 8 0 0
BITMAP
30
28
78
60
20
20
60
F0
ENDCHAR
STARTCHAR Idieresis
ENCODING 207
SWIDTH 515 0
DWIDTH 4 0
BBX 5 8 0 0
BITMAP
28
00
78
60
20
20
60
F0
ENDCHAR
STARTCHAR Eth
ENCODING 208
SWIDTH 656 0
DWIDTH 5 0
BBX 5 6 0 0
BITMAP
40
70
68
E8
70
60
ENDCHAR
STARTCHAR Ntilde
ENCODING 209
SWIDTH 684 0
DWIDTH 5 0
BBX 6 8 0 0
BITMAP
1C
28
28
6C
68
E8
F8
90
ENDCHAR
STARTCHAR Ograve
ENCODING 210
SWIDTH 744 0
DWIDTH 6 0
BBX 6 8 0 0
BITMAP
10
08
10
38
68
CC
9C
F8
ENDCHAR
STARTCHAR Oacute
ENCODING 211
SWIDTH 744 0
DWIDTH 6 0
BBX 6 9 0 0
BITMAP
08
30
00
10
38
68
CC
9C
F8
ENDCHAR
STARTCHAR Ocircumflex
ENCODING 212
SWIDTH 744 0
DWIDTH 6 0
BBX 6 8 0 0
BITMAP
18
2C
10
38
68
CC
9C
F8
ENDCHAR
STARTCHAR Otilde
ENCODING 213
SWIDTH 744 0
DWIDTH 6 0
BBX 6 8 0 0
BITMAP
1C
28
10
38
68
CC
9C
F8
ENDCHAR
STARTCHAR Odieresis
ENCODING 214
SWIDTH 744 0
DWIDTH 6 0
BBX 6 8 0 0
BITMAP
3C
00
10
38
68
CC
9C
F8
ENDCHAR
STARTCHAR multiply
ENCODING 215
SWIDTH 490 0
DWIDTH 4 0
BBX 4 4 0 0
BITMAP
50
60
E0
A0
ENDCHAR
STARTCHAR Oslash
ENCODING 216
SWIDTH 744 0
DWIDTH 6 0
BBX 6 7 0 -1
BITMAP
14
3C
78
FC
BC
F8
40
ENDCHAR
STARTCHAR Ugrave
ENCODING 217
SWIDTH 695 0
DWIDTH 6 0
BBX 6 8 0 0
BITMAP
20
30
04
4C
CC
D8
F0
60
ENDCHAR
STARTCHAR Uacute
ENCODING 218
SWIDTH 695 0
DWIDTH 6 0
BBX 6 8 0 0
BITMAP
08
10
04
4C
CC
D8
F0
60
ENDCHAR
STARTCHAR Ucircumflex
ENCODING 219
SWIDTH 695 0
DWIDTH 6 0
BBX 6 8 0 0
BITMAP
30
28
04
4C
CC
D8
F0
60
ENDCHAR
STARTCHAR Udieresis
ENCODING 220
SWIDTH 695 0
DWIDTH 6 0
BBX 6 8 0 0
BITMAP
28
00
04
4C
CC
D8
F0
60
ENDCHAR
STARTCHAR Yacute
ENCODING 221
SWIDTH 493 0
DWIDTH 4 0
BBX 5 9 0 0
BITMAP
18
30
00
98
50
70
60
40
C0
ENDCHAR
STARTCHAR Thorn
ENCODING 222
SWIDTH 680 0
DWIDTH 5 0
BBX 5 6 0 0
BITMAP
40
70
48
D8
E0
C0
ENDCHAR
STARTCHAR germandbls
ENCODING 223
SWIDTH 931 0
DWIDTH 7 0
BBX 8 5 0 0
BITMAP
33
CC
6E
22
EC
ENDCHAR
STARTCHAR agrave
ENCODING 224
SWIDTH 581 0
DWIDTH 5 0
BBX 5 8 0 0
BITMAP
20
30
00
20
70
50
F8
90
ENDCHAR
STARTCHAR aacute
ENCODING 225
SWIDTH 581 0
DWIDTH 5 0
BBX 5 8 0 0
BITMAP
10
30
00
20
70
50
F8
90
ENDCHAR
STARTCHAR acircumflex
ENCODING 226
SWIDTH 581 0
DWIDTH 5 0
BBX 5 7 0 0
BITMAP
30
50
20
70
50
F8
90
ENDCHAR
STARTCHAR atilde
ENCODING 227
SWIDTH 581 0
DWIDTH 5 0
BBX 5 7 0 0
BITMAP
38
50
20
70
50
F8
90
ENDCHAR
STARTCHAR adieresis
ENCODING 228
SWIDTH 581 0
DWIDTH 5 0
BBX 5 7 0 0
BITMAP
68
00
20
70
50
F8
90
ENDCHAR
STARTCHAR aring
ENCODING 229
SWIDTH 581 0
DWIDTH 5 0
BBX 5 7 0 0
BITMAP
10
30
30
70
50
F8
90
ENDCHAR
STARTCHAR ae
ENCODING 230
SWIDTH 948 0
DWIDTH 8 0
BBX 9 5 -1 0
BITMAP
0B80
3E00
2F00
7C00
DF00
ENDCHAR
STARTCHAR ccedilla
ENCODING 231
SWIDTH 513 0
DWIDTH 4 0
BBX 4 7 0 -2
BITMAP
10
70
C0
80
70
40
60
ENDCHAR
STARTCHAR egrave
ENCODING 232
SWIDTH 521 0
DWIDTH 4 0
BBX 4 8 0 0
BITMAP
40
20
00
30
E0
70
80
F0
ENDCHAR
STARTCHAR eacute
ENCODING 233
SWIDTH 521 0
DWIDTH 4 0
BBX 4 8 0 0
BITMAP
10
20
00
30
E0
70
80
F0
ENDCHAR
STARTCHAR ecircumflex
ENCODING 234
SWIDTH 521 0
DWIDTH 4 0
BBX 5 7 0 0
BITMAP
30
58
30
E0
70
80
F0
ENDCHAR
STARTCHAR edieresis
ENCODING 235
SWIDTH 521 0
DWIDTH 4 0
BBX 5 7 0 0
BITMAP
68
00
30
E0
70
80
F0
ENDCHAR
STARTCHAR igrave
ENCODING 236
SWIDTH 320 0
DWIDTH 3 0
BBX 3 8 0 0
BITMAP
40
60
00
40
40
40
C0
40
ENDCHAR
STARTCHAR iacute
ENCODING 237
SWIDTH 320 0
DWIDTH 3 0
BBX 4 8 0 0
BITMAP
10
30
00
40
40
40
C0
40
ENDCHAR
STARTCHAR icircumflex
ENCODING 238
SWIDTH 320 0
DWIDTH 3 0
BBX 4 7 0 0
BITMAP
60
90
40
40
40
C0
40
ENDCHAR
STARTCHAR idieresis
ENCODING 239
SWIDTH 320 0
DWIDTH 3 0
BBX 4 7 0 0
BITMAP
F0
00
40
40
40
C0
40
ENDCHAR
STARTCHAR eth
ENCODING 240
SWIDTH 541 0
DWIDTH 4 0
BBX 4 5 0 0
BITMAP
40
70
D0
70
C0
ENDCHAR
STARTCHAR ntilde
ENCODING 241
SWIDTH 564 0
DWIDTH 5 0
BBX 6 7 0 0
BITMAP
3C
28
50
78
D0
F0
B0
ENDCHAR
STARTCHAR ograve
ENCODING 242
SWIDTH 628 0
DWIDTH 5 0
BBX 5 7 0 0
BITMAP
20
10
30
70
D0
98
F0
ENDCHAR
STARTCHAR oacute
ENCODING 243
SWIDTH 628 0
DWIDTH 5 0
BBX 5 8 0 0
BITMAP
10
30
00
30
70
D0
98
F0
ENDCHAR
STARTCHAR ocircumflex
ENCODING 244
SWIDTH 628 0
DWIDTH 5 0
BBX 5 7 0 0
BITMAP
30
28
30
70
D0
98
F0
ENDCHAR
STARTCHAR otilde
ENCODING 245
SWIDTH 628 0
DWIDTH 5 0
BBX 6 7 0 0
BITMAP
3C
28
30
70
D0
98
F0
ENDCHAR
STARTCHAR odieresis
ENCODING 246
SWIDTH 628 0
DWIDTH 5 0
BBX 5 7 0 0
BITMAP
28
00
30
70
D0
98
F0
ENDCHAR
STARTCHAR divide
ENCODING 247
SWIDTH 559 0
DWIDTH 4 0
BBX 4 5 0 0
BITMAP
20
20
F0
00
40
ENDCHAR
STARTCHAR oslash
ENCODING 248
SWIDTH 632 0
DWIDTH 5 0
BBX 5 6 0 -1
BITMAP
18
78
70
B8
F0
40
ENDCHAR
STARTCHAR ugrave
ENCODING 249
SWIDTH 584 0
DWIDTH 5 0
BBX 5 8 0 0
BITMAP
60
30
00
08
48
D8
F0
60
ENDCHAR
STARTCHAR uacute
ENCODING 250
SWIDTH 584 0
DWIDTH 5 0
BBX 5 7 0 0
BITMAP
18
30
08
48
D8
F0
60
ENDCHAR
STARTCHAR ucircumflex
ENCODING 251
SWIDTH 584 0
DWIDTH 5 0
BBX 5 7 0 0
BITMAP
30
48
08
48
D8
F0
60
ENDCHAR
STARTCHAR udieresis
ENCODING 252
SWIDTH 584 0
DWIDTH 5 0
BBX 5 7 0 0
BITMAP
68
00
08
48
D8
F0
60
ENDCHAR
STARTCHAR yacute
ENCODING 253
SWIDTH 400 0
DWIDTH 3 0
BBX 4 8 0 0
BITMAP
10
30
00
90
70
60
40
C0
ENDCHAR
STARTCHAR thorn
ENCODING 254
SWIDTH 579 0
DWIDTH 5 0
BBX 5 5 0 0
BITMAP
40
70
D8
E0
80
ENDCHAR
STARTCHAR ydieresis
ENCODING 255
SWIDTH 400 0
DWIDTH 3 0
BBX 5 7 0 0
BITMAP
58
00
90
70
60
40
C0
ENDCHAR
STARTCHAR dotlessi
ENCODING 305
SWIDTH 320 0
DWIDTH 3 0
BBX 2 5 0 0
BITMAP
40
40
40
C0
40
ENDCHAR
STARTCHAR Lslash
ENCODING 321
SWIDTH 632 0
DWIDTH 5 0
BBX 6 6 -1 0
BITMAP
30
30
30
E0
78
7C
ENDCHAR
STARTCHAR lslash
ENCODING 322
SWIDTH 533 0
DWIDTH 4 0
BBX 5 5 -1 0
BITMAP
20
20
F0
40
78
ENDCHAR
STARTCHAR OE
ENCODING 338
SWIDTH 1212 0
DWIDTH 10 0
BBX 10 6 0 0
BITMAP
11C0
3F80
6B00
CF80
9C80
FF80
ENDCHAR
STARTCHAR oe
ENCODING 339
SWIDTH 1010 0
DWIDTH 8 0
BBX 8 5 0 0
BITMAP
33
7E
D7
98
FF
ENDCHAR
STARTCHAR Scaron
ENCODING 352
SWIDTH 576 0
DWIDTH 5 0
BBX 5 8 0 0
BITMAP
28
10
38
F8
E0
10
30
E0
ENDCHAR
STARTCHAR scaron
ENCODING 353
SWIDTH 463 0
DWIDTH 4 0
BBX 5 7 0 0
BITMAP
50
20
30
C8
60
20
E0
ENDCHAR
STARTCHAR Ydieresis
ENCODING 376
SWIDTH 493 0
DWIDTH 4 0
BBX 5 8 0 0
BITMAP
68
00
98
50
70
60
40
C0
ENDCHAR
STARTCHAR Zcaron
ENCODING 381
SWIDTH 664 0
DWIDTH 5 0
BBX 6 8 0 0
BITMAP
3C
18
78
7C
30
60
D8
F0
ENDCHAR
STARTCHAR zcaron
ENCODING 382
SWIDTH 547 0
DWIDTH 4 0
BBX 5 8 0 0
BITMAP
28
10
00
70
18
60
C0
F0
ENDCHAR
STARTCHAR circumflex
ENCODING 710
SWIDTH 754 0
DWIDTH 6 0
BBX 3 2 2 4
BITMAP
E0
A0
ENDCHAR
STARTCHAR caron
ENCODING 711
SWIDTH 754 0
DWIDTH 6 0
BBX 3 2 2 4
BITMAP
A0
40
ENDCHAR
STARTCHAR breve
ENCODING 728
SWIDTH 754 0
DWIDTH 6 0
BBX 3 2 2 4
BITMAP
A0
40
ENDCHAR
STARTCHAR dotaccent
ENCODING 729
SWIDTH 754 0
DWIDTH 6 0
BBX 1 1 3 5
BITMAP
80
ENDCHAR
STARTCHAR ring
ENCODING 730
SWIDTH 754 0
DWIDTH 6 0
BBX 3 3 2 4
BITMAP
40
40
E0
ENDCHAR
STARTCHAR ogonek
ENCODING 731
SWIDTH 754 0
DWIDTH 6 0
BBX 3 2 2 -2
BITMAP
80
60
ENDCHAR
STARTCHAR tilde
ENCODING 732
SWIDTH 754 0
DWIDTH 6 0
BBX 3 2 2 4
BITMAP
E0
C0
ENDCHAR
STARTCHAR hungarumlaut
ENCODING 733
SWIDTH 754 0
DWIDTH 6 0
BBX 5 2 1 4
BITMAP
78
F0
ENDCHAR
STARTCHAR endash
ENCODING 8211
SWIDTH 588 0
DWIDTH 5 0
BBX 4 2 0 1
BITMAP
F0
80
ENDCHAR
STARTCHAR emdash
ENCODING 8212
SWIDTH 878 0
DWIDTH 7 0
BBX 7 1 0 2
BITMAP
FE
ENDCHAR
STARTCHAR quoteleft
ENCODING 8216
SWIDTH 203 0
DWIDTH 2 0
BBX 2 2 1 4
BITMAP
C0
80
ENDCHAR
STARTCHAR quoteright
ENCODING 8217
SWIDTH 199 0
DWIDTH 2 0
BBX 1 2 1 4
BITMAP
80
80
ENDCHAR
STARTCHAR quotesinglbase
ENCODING 8218
SWIDTH 204 0
DWIDTH 2 0
BBX 2 2 -1 -1
BITMAP
40
C0
ENDCHAR
STARTCHAR quotedblleft
ENCODING 8220
SWIDTH 410 0
DWIDTH 3 0
BBX 3 3 1 3
BITMAP
A0
E0
80
ENDCHAR
STARTCHAR quotedblright
ENCODING 8221
SWIDTH 425 0
DWIDTH 3 0
BBX 3 2 1 4
BITMAP
A0
E0
ENDCHAR
STARTCHAR quotedblbase
ENCODING 8222
SWIDTH 430 0
DWIDTH 3 0
BBX 4 2 -1 -1
BITMAP
50
E0
ENDCHAR
STARTCHAR bullet
ENCODING 8226
SWIDTH 299 0
DWIDTH 2 0
BBX 2 1 0 2
BITMAP
C0
ENDCHAR
STARTCHAR ellipsis
ENCODING 8230
SWIDTH 768 0
DWIDTH 6 0
BBX 6 1 0 0
BITMAP
AC
ENDCHAR
STARTCHAR perthousand
ENCODING 8240
SWIDTH 889 0
DWIDTH 7 0
BBX 7 6 0 0
BITMAP
44
68
D0
32
5E
B6
ENDCHAR
STARTCHAR guilsinglleft
ENCODING 8249
SWIDTH 322 0
DWIDTH 3 0
BBX 2 3 0 0
BITMAP
40
80
40
ENDCHAR
STARTCHAR guilsinglright
ENCODING 8250
SWIDTH 341 0
DWIDTH 3 0
BBX 2 3 0 0
BITMAP
C0
40
80
ENDCHAR
STARTCHAR fraction
ENCODING 8260
SWIDTH 541 0
DWIDTH 4 0
BBX 4 6 0 0
BITMAP
10
10
20
40
C0
80
ENDCHAR
STARTCHAR Euro
ENCODING 8364
SWIDTH 565 0
DWIDTH 5 0
BBX 4 5 0 0
BITMAP
10
70
70
C0
70
ENDCHAR
STARTCHAR Delta
ENCODING 8710
SWIDTH 403 0
DWIDTH 3 0
BBX 4 5 0 0
BITMAP
70
20
20
40
E0
ENDCHAR
STARTCHAR minus
ENCODING 8722
SWIDTH 548 0
DWIDTH 4 0
BBX 4 2 0 1
BITMAP
F0
80
ENDCHAR
STARTCHAR approxequal
ENCODING 8776
SWIDTH 323 0
DWIDTH 3 0
BBX 2 6 0 0
BITMAP
40
40
40
C0
C0
40
ENDCHAR
STARTCHAR fi
ENCODING 64257
SWIDTH 810 0
DWIDTH 6 0
BBX 6 5 0 0
BITMAP
3C
C4
D4
EC
84
ENDCHAR
STARTCHAR fl
ENCODING 64258
SWIDTH 1012 0
DWIDTH 8 0
BBX 8 5 0 0
BITMAP
3C
C4
DC
E8
8F
ENDCHAR
STARTCHAR .notdef
ENCODING -1
SWIDTH 370 0
DWIDTH 3 0
BBX 1 1 0 0
BITMAP
00
ENDCHAR
ENDFONT
